<svg width="42" height="42" viewBox="0 0 42 42" fill="none" xmlns="http://www.w3.org/2000/svg">
<path fill-rule="evenodd" clip-rule="evenodd" d="M42 21C42 32.5979 32.5979 42 21 42C9.40212 42 0 32.5979 0 21C0 9.40212 9.40212 0 21 0C32.5979 0 42 9.40212 42 21Z" fill="#393939"/>
<path fill-rule="evenodd" clip-rule="evenodd" d="M21.457 12.3262C20.8516 12.3262 20.2709 12.5667 19.8428 12.9947C19.4148 13.4228 19.1743 14.0035 19.1743 14.6089C19.1743 15.2143 19.4148 15.7949 19.8428 16.223C20.2709 16.6511 20.8516 16.8916 21.457 16.8916C22.0624 16.8916 22.643 16.6511 23.0711 16.223C23.4992 15.7949 23.7397 15.2143 23.7397 14.6089C23.7397 14.0035 23.4992 13.4228 23.0711 12.9947C22.643 12.5667 22.0624 12.3262 21.457 12.3262ZM14.1523 12.3262C13.5469 12.3262 12.9663 12.5667 12.5382 12.9947C12.1101 13.4228 11.8696 14.0035 11.8696 14.6089C11.8696 15.2143 12.1101 15.7949 12.5382 16.223C12.9663 16.6511 13.5469 16.8916 14.1523 16.8916C14.7577 16.8916 15.3383 16.6511 15.7664 16.223C16.1945 15.7949 16.435 15.2143 16.435 14.6089C16.435 14.0035 16.1945 13.4228 15.7664 12.9947C15.3383 12.5667 14.7577 12.3262 14.1523 12.3262ZM28.7616 12.3262C28.4581 12.3203 28.1566 12.3751 27.8745 12.4872C27.5925 12.5993 27.3356 12.7665 27.119 12.979C26.9023 13.1916 26.7302 13.4452 26.6127 13.725C26.4952 14.0049 26.4347 14.3054 26.4347 14.6089C26.4347 14.9124 26.4952 15.2128 26.6127 15.4927C26.7302 15.7725 26.9023 16.0261 27.119 16.2387C27.3356 16.4512 27.5925 16.6184 27.8745 16.7305C28.1566 16.8426 28.4581 16.8974 28.7616 16.8916C29.3594 16.8801 29.9289 16.6346 30.3476 16.2077C30.7664 15.7809 31.0009 15.2068 31.0009 14.6089C31.0009 14.0109 30.7664 13.4368 30.3476 13.01C29.9289 12.5832 29.3594 12.3376 28.7616 12.3262ZM21.457 19.6308C21.1535 19.625 20.8519 19.6797 20.5699 19.7918C20.2878 19.9039 20.031 20.0711 19.8143 20.2837C19.5977 20.4962 19.4255 20.7498 19.3081 21.0297C19.1906 21.3095 19.13 21.61 19.13 21.9135C19.13 22.217 19.1906 22.5175 19.3081 22.7973C19.4255 23.0772 19.5977 23.3308 19.8143 23.5433C20.031 23.7559 20.2878 23.9231 20.5699 24.0352C20.8519 24.1473 21.1535 24.202 21.457 24.1962C22.0548 24.1847 22.6243 23.9392 23.043 23.5124C23.4617 23.0855 23.6963 22.5114 23.6963 21.9135C23.6963 21.3156 23.4617 20.7415 23.043 20.3146C22.6243 19.8878 22.0548 19.6423 21.457 19.6308ZM21.457 26.9346C20.8514 26.9346 20.2707 27.1751 19.8426 27.6033C19.4144 28.0315 19.1738 28.6122 19.1738 29.2177C19.1738 29.8232 19.4144 30.404 19.8426 30.8321C20.2707 31.2603 20.8514 31.5008 21.457 31.5008C22.0625 31.5008 22.6432 31.2603 23.0714 30.8321C23.4995 30.404 23.7401 29.8232 23.7401 29.2177C23.7401 28.6122 23.4995 28.0315 23.0714 27.6033C22.6432 27.1751 22.0625 26.9346 21.457 26.9346Z" fill="white"/>
</svg>
